<svg preserveAspectRatio="none" width="100%" height="100%" overflow="visible" style="display: block;" viewBox="0 0 20 20" fill="none" xmlns="http://www.w3.org/2000/svg">
<g id="SVG">
<path id="Vector" d="M9.98672 4.375C6.94219 4.375 3.81914 6.13711 1.36055 9.66133C1.21704 9.8693 1.21287 10.1432 1.35 10.3555C3.23906 13.3125 6.32031 15.625 9.98672 15.625C13.6133 15.625 16.7578 13.3055 18.6504 10.3418C18.7841 10.134 18.7841 9.86719 18.6504 9.65938C16.7535 6.72969 13.5859 4.375 9.98672 4.375V4.375" stroke="var(--stroke-0, #666666)" stroke-width="1.25" stroke-linecap="round" stroke-linejoin="round"/>
<path id="Vector_2" d="M6.875 10C6.875 11.7247 8.27527 13.125 10 13.125C11.7247 13.125 13.125 11.7247 13.125 10C13.125 8.27527 11.7247 6.875 10 6.875C8.27527 6.875 6.875 8.27527 6.875 10V10" stroke="var(--stroke-0, #666666)" stroke-width="1.25"/>
</g>
</svg>
