<svg preserveAspectRatio="none" width="100%" height="100%" overflow="visible" style="display: block;" viewBox="0 0 22 22" fill="none" xmlns="http://www.w3.org/2000/svg">
<g id="SVG" clip-path="url(#clip0_0_4)">
<path id="Vector" d="M21.4844 11.2492C21.4844 17.3293 17.3207 21.6562 11.1719 21.6562C5.27656 21.6562 0.515625 16.8953 0.515625 11C0.515625 5.10469 5.27656 0.34375 11.1719 0.34375C14.0422 0.34375 16.457 1.39648 18.3176 3.13242L15.4172 5.92109C11.623 2.26016 4.56758 5.01016 4.56758 11C4.56758 14.7168 7.53672 17.7289 11.1719 17.7289C15.3914 17.7289 16.9727 14.7039 17.2219 13.1355H11.1719V9.47031H21.3168C21.4156 10.016 21.4844 10.5402 21.4844 11.2492V11.2492" fill="var(--fill-0, #1A1A1A)"/>
</g>
<defs>
<clipPath id="clip0_0_4">
<rect width="22" height="22" fill="white"/>
</clipPath>
</defs>
</svg>
